solid concave
 facet normal 0 0 -1
  outer loop
  vertex 10.5665 29.0517 0
  vertex 10.5665 49.0537 0
  vertex 20.5665 39.0517 0
  endloop
 endfacet

 facet normal 0 0 -1
  outer loop
  vertex 30.5665 29.0517 0
  vertex 30.5665 26.5977 0
  vertex 20.5665 19.0517 0
  endloop
 endfacet

 facet normal 0 0 -1
  outer loop
  vertex 10.5665 9.05171 0
  vertex 20.5665 17.8237 0
  vertex 21.2465 12.4057 0
  endloop
 endfacet

 facet normal 0 0 -1
  outer loop
  vertex 20.5665 17.8237 0
  vertex 20.5665 19.0517 0
  vertex 30.5665 26.5977 0
  endloop
 endfacet

 facet normal 0 0 -1
  outer loop
  vertex 40.5665 39.0517 0
  vertex 40.5665 37.8257 0
  vertex 30.5665 29.0517 0
  endloop
 endfacet

 facet normal 0 0 -1
  outer loop
  vertex 30.5665 26.5977 0
  vertex 21.2465 12.4057 0
  vertex 20.5665 17.8237 0
  endloop
 endfacet

 facet normal 0 0 -1
  outer loop
  vertex 50.5685 49.0537 0
  vertex 46.3285 29.0517 0
  vertex 40.5665 37.8257 0
  endloop
 endfacet

 facet normal 0 0 -1
  outer loop
  vertex 46.3285 29.0517 0
  vertex 42.0905 9.05171 0
  vertex 32.7705 23.2417 0
  endloop
 endfacet

 facet normal 0 0 -1
  outer loop
  vertex 46.3285 29.0517 0
  vertex 32.7705 23.2417 0
  vertex 30.5665 26.5977 0
  endloop
 endfacet

 facet normal 0 0 -1
  outer loop
  vertex 50.5685 49.0537 0
  vertex 40.5665 39.0517 0
  vertex 30.5665 49.0537 0
  endloop
 endfacet

 facet normal 0 0 -1
  outer loop
  vertex 21.2465 12.4057 0
  vertex 19.0425 9.05171 0
  vertex 10.5665 9.05171 0
  endloop
 endfacet

 facet normal 0 0 -1
  outer loop
  vertex 50.5685 49.0537 0
  vertex 50.5685 48.4277 0
  vertex 46.3285 29.0517 0
  endloop
 endfacet

 facet normal 0 0 -1
  outer loop
  vertex 30.5665 26.5977 0
  vertex 40.5665 37.8257 0
  vertex 46.3285 29.0517 0
  endloop
 endfacet

 facet normal 0 0 -1
  outer loop
  vertex 30.5665 29.0517 0
  vertex 30.5665 49.0537 0
  vertex 40.5665 39.0517 0
  endloop
 endfacet

 facet normal 0 0 -1
  outer loop
  vertex 30.5665 29.0517 0
  vertex 20.5665 19.0517 0
  vertex 10.5665 29.0517 0
  endloop
 endfacet

 facet normal 0 0 -1
  outer loop
  vertex 30.5665 49.0537 0
  vertex 30.5665 29.0517 0
  vertex 20.5665 39.0517 0
  endloop
 endfacet

 facet normal 0 0 -1
  outer loop
  vertex 10.5665 29.0517 0
  vertex 20.5665 39.0517 0
  vertex 30.5665 29.0517 0
  endloop
 endfacet

 facet normal 0 0 -1
  outer loop
  vertex 30.5665 49.0537 0
  vertex 20.5665 39.0517 0
  vertex 10.5665 49.0537 0
  endloop
 endfacet

 facet normal 0 0 -1
  outer loop
  vertex 40.5665 37.8257 0
  vertex 40.5665 39.0517 0
  vertex 50.5685 49.0537 0
  endloop
 endfacet

 facet normal 0 0 -1
  outer loop
  vertex 20.5665 19.0517 0
  vertex 20.5665 17.8237 0
  vertex 10.5665 9.05171 0
  endloop
 endfacet

 facet normal 0 0 -1
  outer loop
  vertex 42.0905 9.05171 0
  vertex 46.3285 29.0517 0
  vertex 50.5685 9.05171 0
  endloop
 endfacet

 facet normal 0 0 -1
  outer loop
  vertex 30.5665 26.5977 0
  vertex 30.5665 29.0517 0
  vertex 40.5665 37.8257 0
  endloop
 endfacet

 facet normal 0 0 -1
  outer loop
  vertex 50.5685 29.0517 0
  vertex 50.5685 28.7397 0
  vertex 46.3285 29.0517 0
  endloop
 endfacet

 facet normal 0 0 -1
  outer loop
  vertex 10.5665 9.05171 0
  vertex 10.5665 29.0517 0
  vertex 20.5665 19.0517 0
  endloop
 endfacet

 facet normal -1 0 0
  outer loop
  vertex 10.5665 9.05171 0
  vertex 10.5665 19.0517 9.998
  vertex 10.5665 29.0517 0
  endloop
 endfacet

 facet normal -1 0 0
  outer loop
  vertex 10.5665 19.0517 9.998
  vertex 10.5665 29.0517 19.996
  vertex 10.5665 29.0517 0
  endloop
 endfacet

 facet normal -1 0 0
  outer loop
  vertex 10.5665 29.0517 0
  vertex 10.5665 39.0517 9.998
  vertex 10.5665 49.0537 0
  endloop
 endfacet

 facet normal -1 0 0
  outer loop
  vertex 10.5665 39.0517 9.998
  vertex 10.5665 29.0517 0
  vertex 10.5665 29.0517 19.996
  endloop
 endfacet

 facet normal 0.835712 -0.549168 0.000137382
  outer loop
  vertex 22.9685 15.0277 5.976
  vertex 19.0425 9.05171 0
  vertex 21.2465 12.4057 0
  endloop
 endfacet

 facet normal 0.83861 -0.544725 -0.0026466
  outer loop
  vertex 21.2465 12.4057 0
  vertex 23.1865 15.3617 6.308
  vertex 22.9685 15.0277 5.976
  endloop
 endfacet

 facet normal -0.0029906 -0.703994 0.7102
  outer loop
  vertex 23.1865 15.3617 6.308
  vertex 10.5665 9.05171 0
  vertex 22.9685 15.0277 5.976
  endloop
 endfacet

 facet normal 4.13842e-05 -0.707036 0.707178
  outer loop
  vertex 10.5665 19.0517 9.998
  vertex 10.5665 9.05171 0
  vertex 23.1865 15.3617 6.308
  endloop
 endfacet

 facet normal -6.6653e-08 -0.707107 0.707107
  outer loop
  vertex 16.8765 22.2057 13.152
  vertex 23.1865 15.3617 6.308
  vertex 30.5665 26.5977 17.544
  endloop
 endfacet

 facet normal 0 -0.706819 0.707395
  outer loop
  vertex 30.5665 29.0517 19.996
  vertex 10.5665 29.0517 19.996
  vertex 30.5665 26.5977 17.544
  endloop
 endfacet

 facet normal 0 -0.706819 0.707395
  outer loop
  vertex 50.5685 29.0517 19.996
  vertex 30.5665 29.0517 19.996
  vertex 30.5665 26.5977 17.544
  endloop
 endfacet

 facet normal 3.71279e-05 -0.70697 0.707244
  outer loop
  vertex 50.5685 29.0517 19.996
  vertex 30.5665 26.5977 17.544
  vertex 34.2965 20.9157 11.864
  endloop
 endfacet

 facet normal 0.000396649 -0.70733 0.706884
  outer loop
  vertex 50.5685 29.0517 19.996
  vertex 34.2965 20.9157 11.864
  vertex 35.6125 18.9157 9.862
  endloop
 endfacet

 facet normal -1.80495e-06 -0.707036 0.707178
  outer loop
  vertex 46.3285 19.0517 9.998
  vertex 50.5685 29.0517 19.996
  vertex 35.6125 18.9157 9.862
  endloop
 endfacet

 facet normal -6.0165e-07 -0.707036 0.707178
  outer loop
  vertex 50.5685 19.0517 9.998
  vertex 46.3285 19.0517 9.998
  vertex 50.5685 9.05171 0
  endloop
 endfacet

 facet normal -6.0165e-07 -0.707036 0.707178
  outer loop
  vertex 42.0905 9.05171 0
  vertex 50.5685 9.05171 0
  vertex 46.3285 19.0517 9.998
  endloop
 endfacet

 facet normal 1 0 0
  outer loop
  vertex 50.5685 38.6037 9.824
  vertex 50.5685 48.4277 0.002
  vertex 50.5685 38.7397 10
  endloop
 endfacet

 facet normal 1 0 0
  outer loop
  vertex 50.5685 23.8257 4.912
  vertex 50.5685 38.6037 9.824
  vertex 50.5685 28.7797 19.648
  endloop
 endfacet

 facet normal 1 0 0
  outer loop
  vertex 50.5685 28.7797 19.648
  vertex 50.5685 18.9157 9.824
  vertex 50.5685 23.8257 4.912
  endloop
 endfacet

 facet normal 1 0 0
  outer loop
  vertex 50.5685 48.4277 0
  vertex 50.5685 43.5157 4.912
  vertex 50.5685 29.0517 0
  endloop
 endfacet

 facet normal 1 0 0
  outer loop
  vertex 50.5685 38.7397 10
  vertex 50.5685 48.4277 0
  vertex 50.5685 39.0517 9.998
  endloop
 endfacet

 facet normal 1 0 0
  outer loop
  vertex 50.5685 29.0517 19.996
  vertex 50.5685 19.0517 9.998
  vertex 50.5685 28.7797 19.65
  endloop
 endfacet

 facet normal 1 0 0
  outer loop
  vertex 50.5685 9.05171 0
  vertex 50.5685 18.9157 9.824
  vertex 50.5685 18.9137 9.824
  endloop
 endfacet

 facet normal 1 0 0
  outer loop
  vertex 50.5685 18.9177 9.828
  vertex 50.5685 18.9137 9.824
  vertex 50.5685 18.9157 9.824
  endloop
 endfacet

 facet normal 1 0 0
  outer loop
  vertex 50.5685 39.0517 9.998
  vertex 50.5685 29.0517 19.996
  vertex 50.5685 38.7397 10
  endloop
 endfacet

 facet normal -1 0 0
  outer loop
  vertex 50.5685 38.6037 9.824
  vertex 50.5685 29.0517 19.996
  vertex 50.5685 38.6037 9.826
  endloop
 endfacet

 facet normal 1 0 0
  outer loop
  vertex 50.5685 18.9157 9.824
  vertex 50.5685 23.8377 14.726
  vertex 50.5685 18.9177 9.828
  endloop
 endfacet

 facet normal 1 0 0
  outer loop
  vertex 50.5685 28.7797 19.648
  vertex 50.5685 38.6037 9.826
  vertex 50.5685 29.0517 19.996
  endloop
 endfacet

 facet normal -1 0 0
  outer loop
  vertex 50.5685 48.4277 0
  vertex 50.5685 38.7397 10
  vertex 50.5685 48.4277 0.002
  endloop
 endfacet

 facet normal 1 0 0
  outer loop
  vertex 50.5685 9.05171 0
  vertex 50.5685 23.8257 4.912
  vertex 50.5685 18.9157 9.824
  endloop
 endfacet

 facet normal 1 0 0
  outer loop
  vertex 50.5685 28.7797 19.65
  vertex 50.5685 23.8377 14.726
  vertex 50.5685 28.7797 19.648
  endloop
 endfacet

 facet normal 1 0 0
  outer loop
  vertex 50.5685 38.6037 9.824
  vertex 50.5685 23.8257 4.912
  vertex 50.5685 23.8277 4.912
  endloop
 endfacet

 facet normal 1 0 0
  outer loop
  vertex 50.5685 19.0517 9.998
  vertex 50.5685 18.9137 9.824
  vertex 50.5685 18.9177 9.828
  endloop
 endfacet

 facet normal 1 0 0
  outer loop
  vertex 50.5685 19.0517 9.998
  vertex 50.5685 9.05171 0
  vertex 50.5685 18.9137 9.824
  endloop
 endfacet

 facet normal -1 0 0
  outer loop
  vertex 50.5685 18.9157 9.824
  vertex 50.5685 28.7797 19.648
  vertex 50.5685 23.8377 14.726
  endloop
 endfacet

 facet normal 1 0 0
  outer loop
  vertex 50.5685 49.0537 0
  vertex 50.5685 39.0517 9.998
  vertex 50.5685 48.4277 0
  endloop
 endfacet

 facet normal 1 0 0
  outer loop
  vertex 50.5685 9.05171 0
  vertex 50.5685 28.7397 0
  vertex 50.5685 23.8277 4.912
  endloop
 endfacet

 facet normal 0 0 -1
  outer loop
  vertex 50.5685 29.0517 0
  vertex 46.3285 29.0517 0
  vertex 50.5685 48.4277 0
  endloop
 endfacet

 facet normal 1 0 0
  outer loop
  vertex 50.5685 9.05171 0
  vertex 50.5685 23.8277 4.912
  vertex 50.5685 23.8257 4.912
  endloop
 endfacet

 facet normal 1 0 0
  outer loop
  vertex 50.5685 29.0517 19.996
  vertex 50.5685 28.7797 19.65
  vertex 50.5685 28.7797 19.648
  endloop
 endfacet

 facet normal 1 0 0
  outer loop
  vertex 50.5685 38.6037 9.826
  vertex 50.5685 28.7797 19.648
  vertex 50.5685 38.6037 9.824
  endloop
 endfacet

 facet normal 1 0 0
  outer loop
  vertex 50.5685 38.7397 10
  vertex 50.5685 29.0517 19.996
  vertex 50.5685 38.6037 9.824
  endloop
 endfacet

 facet normal 0 0 -1
  outer loop
  vertex 50.5685 9.05171 0
  vertex 46.3285 29.0517 0
  vertex 50.5685 28.7397 0
  endloop
 endfacet

 facet normal 1 0 0
  outer loop
  vertex 50.5685 48.4277 0.002
  vertex 50.5685 38.6037 9.824
  vertex 50.5685 43.5157 4.912
  endloop
 endfacet

 facet normal 1 0 0
  outer loop
  vertex 50.5685 18.9177 9.828
  vertex 50.5685 23.8377 14.726
  vertex 50.5685 19.0517 9.998
  endloop
 endfacet

 facet normal 1 0 0
  outer loop
  vertex 50.5685 28.7397 0
  vertex 50.5685 43.5157 4.912
  vertex 50.5685 38.6037 9.824
  endloop
 endfacet

 facet normal 1 0 0
  outer loop
  vertex 50.5685 28.7397 0
  vertex 50.5685 29.0517 0
  vertex 50.5685 43.5157 4.912
  endloop
 endfacet

 facet normal 1 0 0
  outer loop
  vertex 50.5685 28.7797 19.65
  vertex 50.5685 19.0517 9.998
  vertex 50.5685 23.8377 14.726
  endloop
 endfacet

 facet normal 1 0 0
  outer loop
  vertex 50.5685 38.6037 9.824
  vertex 50.5685 23.8277 4.912
  vertex 50.5685 28.7397 0
  endloop
 endfacet

 facet normal 1 0 0
  outer loop
  vertex 50.5685 43.5157 4.912
  vertex 50.5685 48.4277 0
  vertex 50.5685 48.4277 0.002
  endloop
 endfacet

 facet normal -0.835837 -0.548978 5.75985e-05
  outer loop
  vertex 42.0905 9.05171 0
  vertex 35.6125 18.9157 9.862
  vertex 32.7705 23.2417 0
  endloop
 endfacet

 facet normal -0.835862 -0.54894 -0.000110194
  outer loop
  vertex 30.5665 26.5977 0
  vertex 32.7705 23.2417 0
  vertex 34.2965 20.9157 11.864
  endloop
 endfacet

 facet normal 0 0.702578 0.711607
  outer loop
  vertex 30.2525 48.8957 0.156
  vertex 10.5665 49.0537 0
  vertex 25.5665 48.8957 0.156
  endloop
 endfacet

 facet normal 0 0.704841 0.709366
  outer loop
  vertex 31.0085 48.7397 0.312
  vertex 10.5665 49.0537 0
  vertex 30.5665 48.7397 0.312
  endloop
 endfacet

 facet normal 0 0.707111 0.707103
  outer loop
  vertex 25.5665 48.8957 0.156
  vertex 40.5685 48.7397 0.312
  vertex 30.2525 48.8957 0.156
  endloop
 endfacet

 facet normal 0 0.707111 0.707103
  outer loop
  vertex 40.5685 48.7397 0.312
  vertex 25.5665 48.8957 0.156
  vertex 31.0085 48.7397 0.312
  endloop
 endfacet

 facet normal 0 0.707111 0.707103
  outer loop
  vertex 49.9425 48.7397 0.312
  vertex 30.2525 48.8957 0.156
  vertex 40.5685 48.7397 0.312
  endloop
 endfacet

 facet normal 0 0.702578 0.711607
  outer loop
  vertex 10.5665 49.0537 0
  vertex 30.2525 48.8957 0.156
  vertex 30.5665 49.0537 0
  endloop
 endfacet

 facet normal -7.04799e-05 0.702649 0.711537
  outer loop
  vertex 49.9425 48.7397 0.312
  vertex 30.5665 49.0537 0
  vertex 30.2525 48.8957 0.156
  endloop
 endfacet

 facet normal 0.000148989 0.709705 0.704499
  outer loop
  vertex 10.5665 49.0537 0
  vertex 31.0085 48.7397 0.312
  vertex 25.5665 48.8957 0.156
  endloop
 endfacet

 facet normal 0 0.704841 0.709366
  outer loop
  vertex 30.5665 49.0537 0
  vertex 49.9425 48.7397 0.312
  vertex 50.5685 49.0537 0
  endloop
 endfacet

 facet normal 0 0.704841 0.709366
  outer loop
  vertex 30.5665 48.7397 0.312
  vertex 10.5665 49.0537 0
  vertex 30.1265 48.7397 0.312
  endloop
 endfacet

 facet normal 0 0.704841 0.709366
  outer loop
  vertex 30.1265 48.7397 0.312
  vertex 10.5665 49.0537 0
  vertex 20.5665 48.7397 0.312
  endloop
 endfacet

 facet normal 0 0.704841 0.709366
  outer loop
  vertex 20.5665 48.7397 0.312
  vertex 10.5665 49.0537 0
  vertex 11.0085 48.7397 0.312
  endloop
 endfacet

 facet normal 0 0.704841 0.709366
  outer loop
  vertex 50.1265 48.7397 0.312
  vertex 50.5685 49.0537 0
  vertex 49.9425 48.7397 0.312
  endloop
 endfacet

 facet normal -0.00310197 0.707031 0.707176
  outer loop
  vertex 50.5685 49.0537 0
  vertex 50.1265 48.7397 0.312
  vertex 50.1285 38.9137 10.136
  endloop
 endfacet

 facet normal 0.00683228 0.706802 0.707378
  outer loop
  vertex 50.3485 39.0697 9.978
  vertex 50.5685 49.0537 0
  vertex 50.1285 38.9137 10.136
  endloop
 endfacet

 facet normal -1 0 0
  outer loop
  vertex 50.1285 38.9137 10.136
  vertex 50.1285 29.5197 19.528
  vertex 50.1285 29.0877 19.96
  endloop
 endfacet

 facet normal 0.706796 0.50022 0.50022
  outer loop
  vertex 50.1285 29.0877 19.96
  vertex 50.1285 29.5197 19.528
  vertex 40.5685 35.8357 26.72
  endloop
 endfacet

 facet normal 0 -0.707735 0.706478
  outer loop
  vertex 31.0065 29.0877 19.96
  vertex 40.5685 29.0877 19.96
  vertex 40.5685 35.8357 26.72
  endloop
 endfacet

 facet normal 0 -0.707735 0.706478
  outer loop
  vertex 30.5665 35.8357 26.72
  vertex 20.5665 35.8357 26.72
  vertex 30.1285 29.0877 19.96
  endloop
 endfacet

 facet normal 0 -0.707735 0.706478
  outer loop
  vertex 30.1285 29.0877 19.96
  vertex 30.5665 29.0877 19.96
  vertex 30.5665 35.8357 26.72
  endloop
 endfacet

 facet normal 0 -0.707735 0.706478
  outer loop
  vertex 40.5685 35.8357 26.72
  vertex 30.5665 35.8357 26.72
  vertex 31.0065 29.0877 19.96
  endloop
 endfacet

 facet normal 0 -0.707735 0.706478
  outer loop
  vertex 20.5665 29.0877 19.96
  vertex 30.1285 29.0877 19.96
  vertex 20.5665 35.8357 26.72
  endloop
 endfacet

 facet normal 0 -0.707735 0.706478
  outer loop
  vertex 11.0065 29.0877 19.96
  vertex 20.5665 29.0877 19.96
  vertex 20.5665 35.8357 26.72
  endloop
 endfacet

 facet normal 0 -0.707735 0.706478
  outer loop
  vertex 30.5665 29.0877 19.96
  vertex 31.0065 29.0877 19.96
  vertex 30.5665 35.8357 26.72
  endloop
 endfacet

 facet normal 0 -0.707735 0.706478
  outer loop
  vertex 40.5685 29.0877 19.96
  vertex 50.1285 29.0877 19.96
  vertex 40.5685 35.8357 26.72
  endloop
 endfacet

 facet normal -1.41126e-07 0.707128 0.707085
  outer loop
  vertex 31.0065 29.0877 19.96
  vertex 10.5665 29.0517 19.996
  vertex 25.5665 29.0697 19.978
  endloop
 endfacet

 facet normal 0 0.707107 0.707107
  outer loop
  vertex 30.3485 29.0697 19.978
  vertex 40.5685 29.0877 19.96
  vertex 25.5665 29.0697 19.978
  endloop
 endfacet

 facet normal 0 0.707069 0.707144
  outer loop
  vertex 25.5665 29.0697 19.978
  vertex 10.5665 29.0517 19.996
  vertex 30.3485 29.0697 19.978
  endloop
 endfacet

 facet normal 0 0.707069 0.707144
  outer loop
  vertex 30.5665 29.0517 19.996
  vertex 30.3485 29.0697 19.978
  vertex 10.5665 29.0517 19.996
  endloop
 endfacet

 facet normal 2.24865e-08 0.707069 0.707144
  outer loop
  vertex 30.5665 29.0517 19.996
  vertex 50.1285 29.0877 19.96
  vertex 30.3485 29.0697 19.978
  endloop
 endfacet

 facet normal 0 0.707088 0.707125
  outer loop
  vertex 30.1285 29.0877 19.96
  vertex 10.5665 29.0517 19.996
  vertex 30.5665 29.0877 19.96
  endloop
 endfacet

 facet normal 0 0.707088 0.707125
  outer loop
  vertex 50.5685 29.0517 19.996
  vertex 50.1285 29.0877 19.96
  vertex 30.5665 29.0517 19.996
  endloop
 endfacet

 facet normal 0 0.707088 0.707125
  outer loop
  vertex 11.0065 29.0877 19.96
  vertex 10.5665 29.0517 19.996
  vertex 20.5665 29.0877 19.96
  endloop
 endfacet

 facet normal 0 0.707088 0.707125
  outer loop
  vertex 20.5665 29.0877 19.96
  vertex 10.5665 29.0517 19.996
  vertex 30.1285 29.0877 19.96
  endloop
 endfacet

 facet normal 0 0.707088 0.707125
  outer loop
  vertex 30.5665 29.0877 19.96
  vertex 10.5665 29.0517 19.996
  vertex 31.0065 29.0877 19.96
  endloop
 endfacet

 facet normal 0 0.707107 0.707107
  outer loop
  vertex 31.0065 29.0877 19.96
  vertex 25.5665 29.0697 19.978
  vertex 40.5685 29.0877 19.96
  endloop
 endfacet

 facet normal 0 0.707107 0.707107
  outer loop
  vertex 40.5685 29.0877 19.96
  vertex 30.3485 29.0697 19.978
  vertex 50.1285 29.0877 19.96
  endloop
 endfacet

 facet normal 0 -0.707207 0.707007
  outer loop
  vertex 30.5665 35.8357 26.72
  vertex 40.5685 35.8357 26.72
  vertex 30.5665 42.9077 33.794
  endloop
 endfacet

 facet normal 0 -0.707207 0.707007
  outer loop
  vertex 20.5665 35.8357 26.72
  vertex 30.5665 35.8357 26.72
  vertex 30.5665 42.9077 33.794
  endloop
 endfacet

 facet normal -0.707203 0.499305 0.500558
  outer loop
  vertex 20.5665 35.8357 26.72
  vertex 30.5665 42.9077 33.794
  vertex 25.5585 44.2837 25.346
  endloop
 endfacet

 facet normal -0.70742 0.499372 0.500185
  outer loop
  vertex 20.5665 35.8357 26.72
  vertex 25.5585 44.2837 25.346
  vertex 20.5665 45.6757 16.896
  endloop
 endfacet

 facet normal -0.706087 0.500312 0.501127
  outer loop
  vertex 20.5665 45.6757 16.896
  vertex 15.5585 37.2277 18.274
  vertex 20.5665 35.8357 26.72
  endloop
 endfacet

 facet normal -0.706772 0.499133 0.501338
  outer loop
  vertex 11.0045 29.5197 19.528
  vertex 20.5665 35.8357 26.72
  vertex 15.5585 37.2277 18.274
  endloop
 endfacet

 facet normal -0.707879 0.499477 0.49943
  outer loop
  vertex 15.5585 37.2277 18.274
  vertex 11.0065 38.4817 10.568
  vertex 11.0045 29.5197 19.528
  endloop
 endfacet

 facet normal -0.000580375 0.707028 0.707186
  outer loop
  vertex 10.7845 39.2857 9.764
  vertex 11.0045 29.5197 19.528
  vertex 11.0065 38.4817 10.568
  endloop
 endfacet

 facet normal 0.00646735 0.707093 0.707091
  outer loop
  vertex 11.0065 38.4817 10.568
  vertex 11.0065 38.9137 10.136
  vertex 10.5665 49.0537 0
  endloop
 endfacet

 facet normal 0.0029476 0.707025 0.707183
  outer loop
  vertex 10.5665 49.0537 0
  vertex 11.0065 39.3457 9.704
  vertex 11.0065 48.3057 0.746
  endloop
 endfacet

 facet normal 0.00319604 0.707097 0.707109
  outer loop
  vertex 10.5665 49.0537 0
  vertex 11.0065 48.3057 0.746
  vertex 11.0085 48.7397 0.312
  endloop
 endfacet

 facet normal 0 0.706268 -0.707944
  outer loop
  vertex 50.1265 48.7397 0.312
  vertex 49.9425 48.7397 0.312
  vertex 40.5685 55.4997 7.056
  endloop
 endfacet

 facet normal 0 0.706268 -0.707944
  outer loop
  vertex 40.5685 55.4997 7.056
  vertex 40.5685 48.7397 0.312
  vertex 31.0085 48.7397 0.312
  endloop
 endfacet

 facet normal 0 0.706268 -0.707944
  outer loop
  vertex 20.5665 55.4997 7.056
  vertex 20.5665 48.7397 0.312
  vertex 11.0085 48.7397 0.312
  endloop
 endfacet

 facet normal 0 0.706268 -0.707944
  outer loop
  vertex 20.5665 48.7397 0.312
  vertex 20.5665 55.4997 7.056
  vertex 30.1265 48.7397 0.312
  endloop
 endfacet

 facet normal 0 0.706268 -0.707944
  outer loop
  vertex 30.5665 55.4997 7.056
  vertex 30.1265 48.7397 0.312
  vertex 20.5665 55.4997 7.056
  endloop
 endfacet

 facet normal 0 0.706268 -0.707944
  outer loop
  vertex 40.5685 55.4997 7.056
  vertex 31.0085 48.7397 0.312
  vertex 30.5665 55.4997 7.056
  endloop
 endfacet

 facet normal 0 0.706268 -0.707944
  outer loop
  vertex 40.5685 48.7397 0.312
  vertex 40.5685 55.4997 7.056
  vertex 49.9425 48.7397 0.312
  endloop
 endfacet

 facet normal 0 0.706268 -0.707944
  outer loop
  vertex 30.5665 48.7397 0.312
  vertex 30.5665 55.4997 7.056
  vertex 31.0085 48.7397 0.312
  endloop
 endfacet

 facet normal 0 0.706268 -0.707944
  outer loop
  vertex 30.5665 55.4997 7.056
  vertex 30.5665 48.7397 0.312
  vertex 30.1265 48.7397 0.312
  endloop
 endfacet

 facet normal 0 0.707107 -0.707107
  outer loop
  vertex 30.5665 62.5717 14.128
  vertex 30.5665 55.4997 7.056
  vertex 20.5665 55.4997 7.056
  endloop
 endfacet

 facet normal 0 0.707107 -0.707107
  outer loop
  vertex 30.5665 55.4997 7.056
  vertex 30.5665 62.5717 14.128
  vertex 40.5685 55.4997 7.056
  endloop
 endfacet

 facet normal 0.707083 0.499513 0.50052
  outer loop
  vertex 35.5605 54.1237 15.504
  vertex 40.5685 55.4997 7.056
  vertex 30.5665 62.5717 14.128
  endloop
 endfacet

 facet normal 0.708026 0.499806 0.498892
  outer loop
  vertex 35.5605 54.1237 15.504
  vertex 30.5665 62.5717 14.128
  vertex 30.5665 52.7477 23.97
  endloop
 endfacet

 facet normal 0.707131 0.501347 0.498614
  outer loop
  vertex 40.5685 45.6757 16.896
  vertex 35.5605 54.1237 15.504
  vertex 30.5665 52.7477 23.97
  endloop
 endfacet

 facet normal 0.707132 0.498716 0.501246
  outer loop
  vertex 30.5665 52.7477 23.97
  vertex 35.5605 44.2837 25.346
  vertex 40.5685 45.6757 16.896
  endloop
 endfacet

 facet normal 0.706288 0.500171 0.500985
  outer loop
  vertex 40.5685 35.8357 26.72
  vertex 40.5685 45.6757 16.896
  vertex 35.5605 44.2837 25.346
  endloop
 endfacet

 facet normal 0.707219 0.499514 0.500327
  outer loop
  vertex 40.5685 45.6757 16.896
  vertex 40.5685 35.8357 26.72
  vertex 45.5605 37.2277 18.274
  endloop
 endfacet

 facet normal 0.707162 0.499496 0.500426
  outer loop
  vertex 40.5685 45.6757 16.896
  vertex 45.5605 37.2277 18.274
  vertex 50.1285 38.9137 10.136
  endloop
 endfacet

 facet normal 0.707162 0.499961 0.49996
  outer loop
  vertex 50.1285 38.9137 10.136
  vertex 50.1285 39.3457 9.704
  vertex 40.5685 45.6757 16.896
  endloop
 endfacet

 facet normal 0.707135 0.500574 0.499386
  outer loop
  vertex 45.5605 47.0517 8.448
  vertex 40.5685 45.6757 16.896
  vertex 50.1285 39.3457 9.704
  endloop
 endfacet

 facet normal 0.706574 0.500399 0.500353
  outer loop
  vertex 45.5605 47.0517 8.448
  vertex 50.1285 39.3457 9.704
  vertex 50.1265 48.3057 0.746
  endloop
 endfacet

 facet normal 0.706596 0.500362 0.50036
  outer loop
  vertex 45.5605 47.0517 8.448
  vertex 50.1265 48.3057 0.746
  vertex 50.1265 48.7397 0.312
  endloop
 endfacet

 facet normal 0.706765 0.500086 0.500397
  outer loop
  vertex 40.5685 55.4997 7.056
  vertex 45.5605 47.0517 8.448
  vertex 50.1265 48.7397 0.312
  endloop
 endfacet

 facet normal 0.585032 0.573472 0.57347
  outer loop
  vertex 50.1285 39.3457 9.704
  vertex 50.1265 48.7397 0.312
  vertex 50.1265 48.3057 0.746
  endloop
 endfacet

 facet normal 0.707319 0.500256 0.499443
  outer loop
  vertex 40.5685 55.4997 7.056
  vertex 40.5685 45.6757 16.896
  vertex 45.5605 47.0517 8.448
  endloop
 endfacet

 facet normal 0.706661 0.500316 0.500314
  outer loop
  vertex 45.5605 37.2277 18.274
  vertex 50.1285 38.4817 10.568
  vertex 50.1285 38.9137 10.136
  endloop
 endfacet

 facet normal 0.706717 0.50022 0.500332
  outer loop
  vertex 45.5605 37.2277 18.274
  vertex 50.1285 29.5197 19.528
  vertex 50.1285 38.4817 10.568
  endloop
 endfacet

 facet normal 0.707977 0.498978 0.49979
  outer loop
  vertex 35.5605 44.2837 25.346
  vertex 30.5665 52.7477 23.97
  vertex 30.5665 42.9077 33.794
  endloop
 endfacet

 facet normal -0.707037 0.500507 0.499591
  outer loop
  vertex 25.5585 54.1237 15.504
  vertex 30.5665 52.7477 23.97
  vertex 30.5665 62.5717 14.128
  endloop
 endfacet

 facet normal -0.707153 0.500543 0.499391
  outer loop
  vertex 25.5585 54.1237 15.504
  vertex 30.5665 62.5717 14.128
  vertex 20.5665 55.4997 7.056
  endloop
 endfacet

 facet normal -0.70732 0.500256 0.499443
  outer loop
  vertex 20.5665 45.6757 16.896
  vertex 25.5585 54.1237 15.504
  vertex 20.5665 55.4997 7.056
  endloop
 endfacet

 facet normal -0.706188 0.501056 0.500242
  outer loop
  vertex 20.5665 55.4997 7.056
  vertex 15.5585 47.0517 8.448
  vertex 20.5665 45.6757 16.896
  endloop
 endfacet

 facet normal -0.707189 0.499328 0.500554
  outer loop
  vertex 11.0065 39.3457 9.704
  vertex 20.5665 45.6757 16.896
  vertex 15.5585 47.0517 8.448
  endloop
 endfacet

 facet normal -0.707162 0.499961 0.499961
  outer loop
  vertex 20.5665 45.6757 16.896
  vertex 11.0065 39.3457 9.704
  vertex 11.0065 38.9137 10.136
  endloop
 endfacet

 facet normal -0.706765 0.501234 0.499246
  outer loop
  vertex 11.0085 48.7397 0.312
  vertex 15.5585 47.0517 8.448
  vertex 20.5665 55.4997 7.056
  endloop
 endfacet

 facet normal -0.707204 0.50022 0.499643
  outer loop
  vertex 20.5665 45.6757 16.896
  vertex 30.5665 52.7477 23.97
  vertex 25.5585 54.1237 15.504
  endloop
 endfacet

 facet normal 0.706188 0.501056 0.500241
  outer loop
  vertex 40.5685 45.6757 16.896
  vertex 40.5685 55.4997 7.056
  vertex 35.5605 54.1237 15.504
  endloop
 endfacet

 facet normal -0.706081 0.502349 0.499095
  outer loop
  vertex 11.0065 48.3057 0.746
  vertex 15.5585 47.0517 8.448
  vertex 11.0085 48.7397 0.312
  endloop
 endfacet

 facet normal -0.707737 0.499498 0.49961
  outer loop
  vertex 11.0065 39.3457 9.704
  vertex 15.5585 47.0517 8.448
  vertex 11.0065 48.3057 0.746
  endloop
 endfacet

 facet normal 0.00646735 0.707093 0.707091
  outer loop
  vertex 11.0065 39.3457 9.704
  vertex 10.5665 49.0537 0
  vertex 11.0065 38.9137 10.136
  endloop
 endfacet

 facet normal 0.000157665 0.707036 0.707177
  outer loop
  vertex 10.5665 39.0517 9.998
  vertex 11.0045 29.5197 19.528
  vertex 10.7845 39.2857 9.764
  endloop
 endfacet

 facet normal 0.000154511 0.707036 0.707177
  outer loop
  vertex 10.5665 29.0517 19.996
  vertex 11.0045 29.5197 19.528
  vertex 10.5665 39.0517 9.998
  endloop
 endfacet

 facet normal -0.00607395 0.709929 0.704247
  outer loop
  vertex 11.0045 29.2717 19.778
  vertex 11.0045 29.5197 19.528
  vertex 10.5665 29.0517 19.996
  endloop
 endfacet

 facet normal 0.000628922 0.703234 0.710958
  outer loop
  vertex 11.0045 29.2717 19.778
  vertex 10.5665 29.0517 19.996
  vertex 11.0065 29.0877 19.96
  endloop
 endfacet

 facet normal -0.706769 0.493597 0.506793
  outer loop
  vertex 11.0065 29.0877 19.96
  vertex 20.5665 35.8357 26.72
  vertex 11.0045 29.2717 19.778
  endloop
 endfacet

 facet normal -0.707901 0.499438 0.499437
  outer loop
  vertex 11.0065 38.4817 10.568
  vertex 15.5585 37.2277 18.274
  vertex 11.0065 38.9137 10.136
  endloop
 endfacet

 facet normal -0.706627 0.502345 0.498325
  outer loop
  vertex 11.0045 29.2717 19.778
  vertex 20.5665 35.8357 26.72
  vertex 11.0045 29.5197 19.528
  endloop
 endfacet

 facet normal -0.707162 0.500647 0.499274
  outer loop
  vertex 15.5585 37.2277 18.274
  vertex 20.5665 45.6757 16.896
  vertex 11.0065 38.9137 10.136
  endloop
 endfacet

 facet normal -0.707204 0.499744 0.500119
  outer loop
  vertex 30.5665 52.7477 23.97
  vertex 20.5665 45.6757 16.896
  vertex 25.5585 44.2837 25.346
  endloop
 endfacet

 facet normal -0.706988 0.499677 0.500491
  outer loop
  vertex 25.5585 44.2837 25.346
  vertex 30.5665 42.9077 33.794
  vertex 30.5665 52.7477 23.97
  endloop
 endfacet

 facet normal 0.707133 0.500435 0.499529
  outer loop
  vertex 40.5685 35.8357 26.72
  vertex 35.5605 44.2837 25.346
  vertex 30.5665 42.9077 33.794
  endloop
 endfacet

 facet normal 0.706795 0.500244 0.500197
  outer loop
  vertex 45.5605 37.2277 18.274
  vertex 40.5685 35.8357 26.72
  vertex 50.1285 29.5197 19.528
  endloop
 endfacet

 facet normal 1 0 0
  outer loop
  vertex 50.1285 29.5197 19.528
  vertex 50.1285 38.9137 10.136
  vertex 50.1285 38.4817 10.568
  endloop
 endfacet

 facet normal -0.580115 -0.575963 -0.575962
  outer loop
  vertex 50.1265 48.7397 0.312
  vertex 50.1285 39.3457 9.704
  vertex 50.1285 38.9137 10.136
  endloop
 endfacet

 facet normal -0.00640929 0.707163 0.707022
  outer loop
  vertex 50.3485 39.0697 9.978
  vertex 50.1285 29.0877 19.96
  vertex 50.5685 39.0517 9.998
  endloop
 endfacet

 facet normal -0.835499 -0.549492 -0.000265204
  outer loop
  vertex 35.6125 18.9157 9.862
  vertex 34.2965 20.9157 11.864
  vertex 32.7705 23.2417 0
  endloop
 endfacet

 facet normal -0.835968 -0.548779 0
  outer loop
  vertex 30.5665 26.5977 17.544
  vertex 30.5665 26.5977 0
  vertex 34.2965 20.9157 11.864
  endloop
 endfacet

 facet normal 0.83583 -0.548988 0
  outer loop
  vertex 30.5665 26.5977 17.544
  vertex 23.1865 15.3617 6.308
  vertex 30.5665 26.5977 0
  endloop
 endfacet

 facet normal 0.835872 -0.548924 0.000162772
  outer loop
  vertex 30.5665 26.5977 0
  vertex 23.1865 15.3617 6.308
  vertex 21.2465 12.4057 0
  endloop
 endfacet

 facet normal 0 -0.707107 0.707107
  outer loop
  vertex 10.5665 9.05171 0
  vertex 19.0425 9.05171 0
  vertex 22.9685 15.0277 5.976
  endloop
 endfacet

 facet normal -1.2033e-06 -0.707036 0.707178
  outer loop
  vertex 46.3285 19.0517 9.998
  vertex 35.6125 18.9157 9.862
  vertex 42.0905 9.05171 0
  endloop
 endfacet

 facet normal -1.2033e-06 -0.707036 0.707178
  outer loop
  vertex 50.5685 19.0517 9.998
  vertex 50.5685 29.0517 19.996
  vertex 46.3285 19.0517 9.998
  endloop
 endfacet

 facet normal -8.58344e-06 0.707036 0.707178
  outer loop
  vertex 50.5685 39.0517 9.998
  vertex 50.1285 29.0877 19.96
  vertex 50.5685 29.0517 19.996
  endloop
 endfacet

 facet normal 0.00031003 0.706965 0.707248
  outer loop
  vertex 10.7845 39.2857 9.764
  vertex 10.5665 49.0537 0
  vertex 10.5665 39.0517 9.998
  endloop
 endfacet

 facet normal -7.04771e-05 -0.707036 0.707177
  outer loop
  vertex 16.8765 22.2057 13.152
  vertex 10.5665 29.0517 19.996
  vertex 10.5665 19.0517 9.998
  endloop
 endfacet

 facet normal 0.00652419 0.70702 0.707164
  outer loop
  vertex 50.3485 39.0697 9.978
  vertex 50.1285 38.9137 10.136
  vertex 50.1285 29.0877 19.96
  endloop
 endfacet

 facet normal -0.00644592 0.706951 0.707234
  outer loop
  vertex 50.3485 39.0697 9.978
  vertex 50.5685 39.0517 9.998
  vertex 50.5685 49.0537 0
  endloop
 endfacet

 facet normal -0.00115241 0.706948 0.707264
  outer loop
  vertex 10.7845 39.2857 9.764
  vertex 11.0065 38.4817 10.568
  vertex 10.5665 49.0537 0
  endloop
 endfacet

 facet normal -8.80486e-09 -0.707107 0.707107
  outer loop
  vertex 16.8765 22.2057 13.152
  vertex 10.5665 19.0517 9.998
  vertex 23.1865 15.3617 6.308
  endloop
 endfacet

 facet normal -5.11393e-05 -0.707027 0.707186
  outer loop
  vertex 16.8765 22.2057 13.152
  vertex 30.5665 26.5977 17.544
  vertex 10.5665 29.0517 19.996
  endloop
 endfacet

endsolid concave
